<svg xmlns="http://www.w3.org/2000/svg" viewBox="0 0 32 32" fill="none">
  <defs>
    <linearGradient id="favicon-grad" x1="0" y1="0" x2="1" y2="1">
      <stop offset="0%" stopColor="#2563EB"/>
      <stop offset="50%" stopColor="#6366F1"/>
      <stop offset="100%" stopColor="#06B6D4"/>
    </linearGradient>
  </defs>
  <rect width="32" height="32" rx="6" fill="url(#favicon-grad)"/>
  <!-- Neural S path -->
  <path d="M9 10C9 10 12 7 16 8.5C20 10 20 14 17 15.5C14 17 11 15.5 10 18.5C9 21.5 12 24.5 16 24.5" stroke="white" stroke-width="2.2" stroke-linecap="round" stroke-linejoin="round" fill="none" opacity="0.95"/>
  <!-- Top node -->
  <circle cx="9" cy="9.5" r="2.5" fill="white"/>
  <!-- Bottom node -->
  <circle cx="19" cy="23.5" r="2.5" fill="white" opacity="0.85"/>
  <!-- Connection dots -->
  <circle cx="12" cy="9" r="0.8" fill="white" opacity="0.7"/>
  <circle cx="15" cy="8.8" r="1" fill="white" opacity="0.8"/>
  <circle cx="18" cy="10.5" r="0.8" fill="white" opacity="0.6"/>
  <circle cx="17" cy="15" r="1" fill="white" opacity="0.9"/>
  <circle cx="15" cy="17.5" r="0.8" fill="white" opacity="0.7"/>
  <circle cx="12" cy="17" r="0.8" fill="white" opacity="0.6"/>
  <circle cx="10" cy="20" r="0.8" fill="white" opacity="0.7"/>
</svg>
